<svg width="129" height="38" viewBox="0 0 129 38" fill="none" xmlns="http://www.w3.org/2000/svg">
<rect width="129" height="38" rx="6" fill="#EBE5F9"/>
<path d="M19 9.375C16.995 9.37727 15.0728 10.1748 13.655 11.5925C12.2373 13.0103 11.4398 14.9325 11.4375 16.9375C11.4375 23.4086 18.3125 28.2984 18.6047 28.5047C18.7218 28.5827 18.8593 28.6243 19 28.6243C19.1407 28.6243 19.2782 28.5827 19.3953 28.5047C19.6875 28.2984 26.5625 23.4086 26.5625 16.9375C26.5602 14.9325 25.7627 13.0103 24.345 11.5925C22.9272 10.1748 21.005 9.37727 19 9.375ZM19 14.1875C19.5439 14.1875 20.0756 14.3488 20.5278 14.651C20.9801 14.9531 21.3325 15.3826 21.5407 15.8851C21.7488 16.3876 21.8033 16.9406 21.6972 17.474C21.5911 18.0074 21.3291 18.4974 20.9445 18.882C20.5599 19.2666 20.0699 19.5286 19.5365 19.6347C19.0031 19.7408 18.4501 19.6863 17.9476 19.4782C17.4451 19.27 17.0156 18.9176 16.7135 18.4653C16.4113 18.0131 16.25 17.4814 16.25 16.9375C16.25 16.2082 16.5397 15.5087 17.0555 14.993C17.5712 14.4772 18.2707 14.1875 19 14.1875Z" fill="#8047F8"/>
<path d="M38.7031 19.3447H36.1807L36.167 18.2852H38.457C38.8353 18.2852 39.1657 18.2214 39.4482 18.0938C39.7308 17.9661 39.9495 17.7839 40.1045 17.5469C40.264 17.3053 40.3438 17.0182 40.3438 16.6855C40.3438 16.321 40.2731 16.0247 40.1318 15.7969C39.9951 15.5645 39.7832 15.3958 39.4961 15.291C39.2135 15.1816 38.8535 15.127 38.416 15.127H36.4746V24H35.1553V14.0469H38.416C38.9264 14.0469 39.3822 14.0993 39.7832 14.2041C40.1842 14.3044 40.5238 14.4639 40.8018 14.6826C41.0843 14.8968 41.2985 15.1702 41.4443 15.5029C41.5902 15.8356 41.6631 16.2344 41.6631 16.6992C41.6631 17.1094 41.5583 17.4808 41.3486 17.8135C41.139 18.1416 40.8473 18.4105 40.4736 18.6201C40.1045 18.8298 39.6715 18.9642 39.1748 19.0234L38.7031 19.3447ZM38.6416 24H35.6611L36.4062 22.9268H38.6416C39.0609 22.9268 39.4163 22.8538 39.708 22.708C40.0042 22.5622 40.2298 22.3571 40.3848 22.0928C40.5397 21.8239 40.6172 21.5072 40.6172 21.1426C40.6172 20.7734 40.5511 20.4544 40.4189 20.1855C40.2868 19.9167 40.0794 19.7093 39.7969 19.5635C39.5143 19.4176 39.1497 19.3447 38.7031 19.3447H36.8232L36.8369 18.2852H39.4072L39.6875 18.668C40.166 18.709 40.5716 18.8457 40.9043 19.0781C41.237 19.306 41.4899 19.5977 41.6631 19.9531C41.8408 20.3086 41.9297 20.7005 41.9297 21.1289C41.9297 21.7487 41.793 22.2728 41.5195 22.7012C41.2507 23.125 40.8701 23.4486 40.3779 23.6719C39.8857 23.8906 39.307 24 38.6416 24ZM45.0605 13.5V24H43.7891V13.5H45.0605ZM51.6162 22.291V16.6035H52.8877V24H51.6777L51.6162 22.291ZM51.8555 20.7324L52.3818 20.7188C52.3818 21.2109 52.3294 21.6667 52.2246 22.0859C52.1243 22.5007 51.9603 22.8607 51.7324 23.166C51.5046 23.4714 51.2061 23.7106 50.8369 23.8838C50.4678 24.0524 50.0189 24.1367 49.4902 24.1367C49.1302 24.1367 48.7998 24.0843 48.499 23.9795C48.2028 23.8747 47.9476 23.7129 47.7334 23.4941C47.5192 23.2754 47.3529 22.9906 47.2344 22.6396C47.1204 22.2887 47.0635 21.8672 47.0635 21.375V16.6035H48.3281V21.3887C48.3281 21.7214 48.3646 21.9971 48.4375 22.2158C48.515 22.43 48.6175 22.6009 48.7451 22.7285C48.8773 22.8516 49.0231 22.9382 49.1826 22.9883C49.3467 23.0384 49.5153 23.0635 49.6885 23.0635C50.2262 23.0635 50.6523 22.9609 50.9668 22.7559C51.2812 22.5462 51.5068 22.266 51.6436 21.915C51.7848 21.5596 51.8555 21.1654 51.8555 20.7324ZM56.0732 18.0732V24H54.8018V16.6035H56.0049L56.0732 18.0732ZM55.8135 20.0215L55.2256 20.001C55.2301 19.4951 55.2962 19.028 55.4238 18.5996C55.5514 18.1667 55.7406 17.7907 55.9912 17.4717C56.2419 17.1527 56.554 16.9066 56.9277 16.7334C57.3014 16.5557 57.7344 16.4668 58.2266 16.4668C58.5729 16.4668 58.8919 16.5169 59.1836 16.6172C59.4753 16.7129 59.7282 16.8656 59.9424 17.0752C60.1566 17.2848 60.3229 17.5537 60.4414 17.8818C60.5599 18.21 60.6191 18.6064 60.6191 19.0713V24H59.3545V19.1328C59.3545 18.7454 59.2884 18.4355 59.1562 18.2031C59.0286 17.9707 58.8464 17.8021 58.6094 17.6973C58.3724 17.5879 58.0944 17.5332 57.7754 17.5332C57.4017 17.5332 57.0895 17.5993 56.8389 17.7314C56.5882 17.8636 56.3877 18.0459 56.2373 18.2783C56.0869 18.5107 55.9775 18.7773 55.9092 19.0781C55.8454 19.3743 55.8135 19.6888 55.8135 20.0215ZM60.6055 19.3242L59.7578 19.584C59.7624 19.1784 59.8285 18.7887 59.9561 18.415C60.0882 18.0413 60.2773 17.7087 60.5234 17.417C60.7741 17.1253 61.0817 16.8952 61.4463 16.7266C61.8109 16.5534 62.2279 16.4668 62.6973 16.4668C63.0938 16.4668 63.4447 16.5192 63.75 16.624C64.0599 16.7288 64.3197 16.8906 64.5293 17.1094C64.7435 17.3236 64.9053 17.5993 65.0146 17.9365C65.124 18.2738 65.1787 18.6748 65.1787 19.1396V24H63.9072V19.126C63.9072 18.7113 63.8411 18.39 63.709 18.1621C63.5814 17.9297 63.3991 17.7679 63.1621 17.6768C62.9297 17.5811 62.6517 17.5332 62.3281 17.5332C62.0501 17.5332 61.804 17.5811 61.5898 17.6768C61.3757 17.7725 61.1956 17.9046 61.0498 18.0732C60.904 18.2373 60.7923 18.4264 60.7148 18.6406C60.6419 18.8548 60.6055 19.0827 60.6055 19.3242ZM70.1621 24.1367C69.6471 24.1367 69.18 24.0501 68.7607 23.877C68.346 23.6992 67.9883 23.4508 67.6875 23.1318C67.3913 22.8128 67.1634 22.4346 67.0039 21.9971C66.8444 21.5596 66.7646 21.0811 66.7646 20.5615V20.2744C66.7646 19.6729 66.8535 19.1374 67.0312 18.668C67.209 18.194 67.4505 17.793 67.7559 17.4648C68.0612 17.1367 68.4076 16.8883 68.7949 16.7197C69.1823 16.5511 69.5833 16.4668 69.998 16.4668C70.5267 16.4668 70.9824 16.5579 71.3652 16.7402C71.7526 16.9225 72.0693 17.1777 72.3154 17.5059C72.5615 17.8294 72.7438 18.2122 72.8623 18.6543C72.9808 19.0918 73.04 19.5703 73.04 20.0898V20.6572H67.5166V19.625H71.7754V19.5293C71.7572 19.2012 71.6888 18.8822 71.5703 18.5723C71.4564 18.2624 71.2741 18.0072 71.0234 17.8066C70.7728 17.6061 70.431 17.5059 69.998 17.5059C69.7109 17.5059 69.4466 17.5674 69.2051 17.6904C68.9635 17.8089 68.7562 17.9867 68.583 18.2236C68.4098 18.4606 68.2754 18.75 68.1797 19.0918C68.084 19.4336 68.0361 19.8278 68.0361 20.2744V20.5615C68.0361 20.9124 68.084 21.2428 68.1797 21.5527C68.2799 21.8581 68.4235 22.127 68.6104 22.3594C68.8018 22.5918 69.0319 22.7741 69.3008 22.9062C69.5742 23.0384 69.8841 23.1045 70.2305 23.1045C70.6771 23.1045 71.0553 23.0133 71.3652 22.8311C71.6751 22.6488 71.9463 22.4049 72.1787 22.0996L72.9443 22.708C72.7848 22.9495 72.582 23.1797 72.3359 23.3984C72.0898 23.6172 71.7868 23.7949 71.4268 23.9316C71.0713 24.0684 70.6497 24.1367 70.1621 24.1367ZM75.7812 18.1826V24H74.5166V16.6035H75.7129L75.7812 18.1826ZM75.4805 20.0215L74.9541 20.001C74.9587 19.4951 75.0339 19.028 75.1797 18.5996C75.3255 18.1667 75.5306 17.7907 75.7949 17.4717C76.0592 17.1527 76.3737 16.9066 76.7383 16.7334C77.1074 16.5557 77.5153 16.4668 77.9619 16.4668C78.3265 16.4668 78.6546 16.5169 78.9463 16.6172C79.238 16.7129 79.4863 16.8678 79.6914 17.082C79.901 17.2962 80.0605 17.5742 80.1699 17.916C80.2793 18.2533 80.334 18.6657 80.334 19.1533V24H79.0625V19.1396C79.0625 18.7523 79.0055 18.4424 78.8916 18.21C78.7777 17.973 78.6113 17.8021 78.3926 17.6973C78.1738 17.5879 77.9049 17.5332 77.5859 17.5332C77.2715 17.5332 76.9844 17.5993 76.7246 17.7314C76.4694 17.8636 76.2484 18.0459 76.0615 18.2783C75.8792 18.5107 75.7357 18.7773 75.6309 19.0781C75.5306 19.3743 75.4805 19.6888 75.4805 20.0215ZM86.6162 22.7354V18.9277C86.6162 18.6361 86.557 18.3831 86.4385 18.1689C86.3245 17.9502 86.1514 17.7816 85.9189 17.6631C85.6865 17.5446 85.3994 17.4854 85.0576 17.4854C84.7386 17.4854 84.4583 17.54 84.2168 17.6494C83.9798 17.7588 83.793 17.9023 83.6562 18.0801C83.5241 18.2578 83.458 18.4492 83.458 18.6543H82.1934C82.1934 18.39 82.2617 18.1279 82.3984 17.8682C82.5352 17.6084 82.7311 17.3737 82.9863 17.1641C83.2461 16.9499 83.556 16.7812 83.916 16.6582C84.2806 16.5306 84.6862 16.4668 85.1328 16.4668C85.6706 16.4668 86.1445 16.5579 86.5547 16.7402C86.9694 16.9225 87.293 17.1982 87.5254 17.5674C87.7624 17.932 87.8809 18.39 87.8809 18.9414V22.3867C87.8809 22.6328 87.9014 22.8949 87.9424 23.1729C87.988 23.4508 88.054 23.6901 88.1406 23.8906V24H86.8213C86.7575 23.8542 86.7074 23.6605 86.6709 23.4189C86.6344 23.1729 86.6162 22.945 86.6162 22.7354ZM86.835 19.5156L86.8486 20.4043H85.5703C85.2103 20.4043 84.889 20.4339 84.6064 20.4932C84.3239 20.5479 84.0869 20.6322 83.8955 20.7461C83.7041 20.86 83.5583 21.0036 83.458 21.1768C83.3577 21.3454 83.3076 21.5436 83.3076 21.7715C83.3076 22.0039 83.36 22.2158 83.4648 22.4072C83.5697 22.5986 83.7269 22.7513 83.9365 22.8652C84.1507 22.9746 84.4128 23.0293 84.7227 23.0293C85.11 23.0293 85.4518 22.9473 85.748 22.7832C86.0443 22.6191 86.279 22.4186 86.4521 22.1816C86.6299 21.9447 86.7256 21.7145 86.7393 21.4912L87.2793 22.0996C87.2474 22.291 87.1608 22.5029 87.0195 22.7354C86.8783 22.9678 86.6891 23.1911 86.4521 23.4053C86.2197 23.6149 85.9417 23.7904 85.6182 23.9316C85.2992 24.0684 84.9391 24.1367 84.5381 24.1367C84.0368 24.1367 83.597 24.0387 83.2188 23.8428C82.8451 23.6468 82.5534 23.3848 82.3438 23.0566C82.1387 22.724 82.0361 22.3525 82.0361 21.9424C82.0361 21.5459 82.1136 21.1973 82.2686 20.8965C82.4235 20.5911 82.6468 20.3382 82.9385 20.1377C83.2301 19.9326 83.5811 19.7777 83.9912 19.6729C84.4014 19.568 84.8594 19.5156 85.3652 19.5156H86.835ZM94.3955 22.291V16.6035H95.667V24H94.457L94.3955 22.291ZM94.6348 20.7324L95.1611 20.7188C95.1611 21.2109 95.1087 21.6667 95.0039 22.0859C94.9036 22.5007 94.7396 22.8607 94.5117 23.166C94.2839 23.4714 93.9854 23.7106 93.6162 23.8838C93.2471 24.0524 92.7982 24.1367 92.2695 24.1367C91.9095 24.1367 91.5791 24.0843 91.2783 23.9795C90.9821 23.8747 90.7269 23.7129 90.5127 23.4941C90.2985 23.2754 90.1322 22.9906 90.0137 22.6396C89.8997 22.2887 89.8428 21.8672 89.8428 21.375V16.6035H91.1074V21.3887C91.1074 21.7214 91.1439 21.9971 91.2168 22.2158C91.2943 22.43 91.3968 22.6009 91.5244 22.7285C91.6566 22.8516 91.8024 22.9382 91.9619 22.9883C92.126 23.0384 92.2946 23.0635 92.4678 23.0635C93.0055 23.0635 93.4316 22.9609 93.7461 22.7559C94.0605 22.5462 94.2861 22.266 94.4229 21.915C94.5641 21.5596 94.6348 21.1654 94.6348 20.7324ZM98.7432 22.4961V23.5146C98.7432 23.9294 98.6383 24.3669 98.4287 24.8271C98.2191 25.292 97.9251 25.6794 97.5469 25.9893L96.8291 25.4902C96.9749 25.2897 97.098 25.0846 97.1982 24.875C97.2985 24.6699 97.3737 24.4557 97.4238 24.2324C97.4785 24.0137 97.5059 23.7812 97.5059 23.5352V22.4961H98.7432ZM109.325 21.4844C109.325 21.252 109.289 21.0469 109.216 20.8691C109.147 20.6868 109.024 20.5228 108.847 20.377C108.674 20.2311 108.432 20.0921 108.122 19.96C107.817 19.8278 107.429 19.6934 106.96 19.5566C106.468 19.4108 106.023 19.249 105.627 19.0713C105.23 18.889 104.891 18.6816 104.608 18.4492C104.326 18.2168 104.109 17.9502 103.959 17.6494C103.809 17.3486 103.733 17.0046 103.733 16.6172C103.733 16.2298 103.813 15.8721 103.973 15.5439C104.132 15.2158 104.36 14.931 104.656 14.6895C104.957 14.4434 105.315 14.252 105.729 14.1152C106.144 13.9785 106.607 13.9102 107.117 13.9102C107.865 13.9102 108.498 14.0537 109.018 14.3408C109.542 14.6234 109.94 14.9948 110.214 15.4551C110.487 15.9108 110.624 16.3984 110.624 16.918H109.312C109.312 16.5443 109.232 16.2139 109.072 15.9268C108.913 15.6351 108.671 15.4072 108.348 15.2432C108.024 15.0745 107.614 14.9902 107.117 14.9902C106.648 14.9902 106.26 15.0609 105.955 15.2021C105.65 15.3434 105.422 15.5348 105.271 15.7764C105.126 16.0179 105.053 16.2936 105.053 16.6035C105.053 16.8132 105.096 17.0046 105.183 17.1777C105.274 17.3464 105.413 17.5036 105.6 17.6494C105.791 17.7952 106.033 17.9297 106.324 18.0527C106.62 18.1758 106.974 18.2943 107.384 18.4082C107.949 18.5677 108.437 18.7454 108.847 18.9414C109.257 19.1374 109.594 19.3584 109.858 19.6045C110.127 19.846 110.326 20.1217 110.453 20.4316C110.585 20.737 110.651 21.0833 110.651 21.4707C110.651 21.8763 110.569 22.2432 110.405 22.5713C110.241 22.8994 110.007 23.1797 109.701 23.4121C109.396 23.6445 109.029 23.8245 108.601 23.9521C108.177 24.0752 107.703 24.1367 107.179 24.1367C106.718 24.1367 106.265 24.0729 105.818 23.9453C105.376 23.8177 104.973 23.6263 104.608 23.3711C104.248 23.1159 103.959 22.8014 103.74 22.4277C103.526 22.0495 103.419 21.612 103.419 21.1152H104.731C104.731 21.457 104.798 21.751 104.93 21.9971C105.062 22.2386 105.242 22.4391 105.47 22.5986C105.702 22.7581 105.964 22.8766 106.256 22.9541C106.552 23.027 106.86 23.0635 107.179 23.0635C107.639 23.0635 108.029 22.9997 108.348 22.8721C108.667 22.7445 108.908 22.5622 109.072 22.3252C109.241 22.0882 109.325 21.8079 109.325 21.4844ZM118.342 20.835H119.654C119.586 21.4639 119.406 22.0267 119.114 22.5234C118.823 23.0202 118.41 23.4144 117.877 23.7061C117.344 23.9932 116.678 24.1367 115.881 24.1367C115.298 24.1367 114.767 24.0273 114.288 23.8086C113.814 23.5898 113.406 23.2799 113.064 22.8789C112.723 22.4733 112.458 21.988 112.271 21.4229C112.089 20.8532 111.998 20.2197 111.998 19.5225V18.5312C111.998 17.834 112.089 17.2028 112.271 16.6377C112.458 16.068 112.725 15.5804 113.071 15.1748C113.422 14.7692 113.844 14.457 114.336 14.2383C114.828 14.0195 115.382 13.9102 115.997 13.9102C116.749 13.9102 117.385 14.0514 117.904 14.334C118.424 14.6165 118.827 15.0085 119.114 15.5098C119.406 16.0065 119.586 16.583 119.654 17.2393H118.342C118.278 16.7744 118.16 16.3757 117.986 16.043C117.813 15.7057 117.567 15.446 117.248 15.2637C116.929 15.0814 116.512 14.9902 115.997 14.9902C115.555 14.9902 115.165 15.0745 114.828 15.2432C114.495 15.4118 114.215 15.651 113.987 15.9609C113.764 16.2708 113.595 16.6423 113.481 17.0752C113.368 17.5081 113.311 17.9889 113.311 18.5176V19.5225C113.311 20.0101 113.361 20.4681 113.461 20.8965C113.566 21.3249 113.723 21.7008 113.933 22.0244C114.142 22.348 114.409 22.6032 114.732 22.79C115.056 22.9723 115.439 23.0635 115.881 23.0635C116.441 23.0635 116.888 22.9746 117.221 22.7969C117.553 22.6191 117.804 22.3639 117.973 22.0312C118.146 21.6986 118.269 21.2998 118.342 20.835Z" fill="#4B2995"/>
</svg>
